<svg id="Group_244" data-name="Group 244" xmlns="http://www.w3.org/2000/svg" viewBox="0 0 157.292 54.862">
  <defs>
    <style>
      .cls-1 {
        fill: #fff;
      }
    </style>
  </defs>
  <path id="Path_126" data-name="Path 126" class="cls-1" d="M83.6,56.027,82.759,53.8l-.922,2.228ZM83.22,52.8a2.3,2.3,0,0,0,.307.768L84.757,56.8c.307.845.461.922.692.922h.077v.231H83.6v-.231h.154c.307,0,.384-.077.384-.154a.581.581,0,0,0-.077-.307l-.384-.922h-2l-.231.615a3.394,3.394,0,0,0-.231.615c0,.231.231.231.461.231h.077v.231H80.3v-.231h.077c.231,0,.384-.077.538-.461l1.537-3.688a2.442,2.442,0,0,0,.231-.692h.538Z" transform="translate(-18.6 -12.23)"/>
  <path id="Path_127" data-name="Path 127" class="cls-1" d="M90.673,54.029h-.231a1.05,1.05,0,0,0-1.076-1.076.95.95,0,0,0-1.076,1c0,1.153,2.689.768,2.689,2.612A1.561,1.561,0,0,1,89.214,58.1c-.307,0-.538-.077-.768-.077a.835.835,0,0,0-.384-.077c-.154,0-.154.077-.231.154H87.6V56.719h.231c.154.768.538,1.229,1.306,1.229a1.031,1.031,0,0,0,1.153-1.076c0-1.229-2.689-.922-2.689-2.536A1.535,1.535,0,0,1,89.29,52.8a10.023,10.023,0,0,1,1,.231.165.165,0,0,0,.154-.154h.231v1.153Z" transform="translate(-20.291 -12.23)"/>
  <path id="Path_128" data-name="Path 128" class="cls-1" d="M95.973,54.029h-.231a1.05,1.05,0,0,0-1.076-1.076.95.95,0,0,0-1.076,1c0,1.153,2.689.768,2.689,2.612A1.561,1.561,0,0,1,94.514,58.1c-.307,0-.538-.077-.768-.077a.835.835,0,0,0-.384-.077c-.154,0-.154.077-.231.154H92.9V56.719h.231c.154.768.538,1.229,1.306,1.229a1.031,1.031,0,0,0,1.153-1.076c0-1.229-2.689-.922-2.689-2.536A1.535,1.535,0,0,1,94.59,52.8a10.023,10.023,0,0,1,1,.231.165.165,0,0,0,.154-.154h.231v1.153Z" transform="translate(-21.519 -12.23)"/>
  <path id="Path_129" data-name="Path 129" class="cls-1" d="M98.2,57.741h.307c.154,0,.307-.077.307-.461V53.592c0-.384,0-.461-.307-.461h-.231V52.9H102.2v1.153h-.231c0-.692-.384-1-1.076-1H99.583v2.228h1.076c.461,0,.692-.307.692-.768h.231v1.767h-.231c0-.461-.154-.768-.692-.768H99.583v2.228h1.306c.692,0,1.076-.307,1.076-1h.231v1.229h-4v-.231Z" transform="translate(-22.746 -12.253)"/>
  <path id="Path_130" data-name="Path 130" class="cls-1" d="M104.2,57.718h.231c.307,0,.307-.231.307-.845V53.415c0-.231,0-.384-.307-.384H104.2V52.8h1.383c.077.154.154.461.307.768l1.306,3,1.306-3.073a7.072,7.072,0,0,0,.231-.692h1.383v.231h-.307c-.231,0-.231.154-.231.461v3.534c0,.538,0,.692.307.692h.231v.231H108.2v-.231h.231c.307,0,.307-.077.307-.692V53.645h0l-1.69,4h-.231l-1.69-4h0v3.3c0,.615,0,.845.384.845h.231v.231h-1.46v-.307Z" transform="translate(-24.136 -12.23)"/>
  <path id="Path_131" data-name="Path 131" class="cls-1" d="M113.983,57.718h.538c.845,0,1.306-.384,1.306-1.229s-.692-1.076-1.46-1.153h-.384Zm0-2.536h.384c.845,0,1.306-.307,1.306-1.153a.948.948,0,0,0-1-.922h-.615v2.075ZM112.6,57.718h.307c.231,0,.307-.154.307-.768V53.722c0-.692,0-.692-.307-.692H112.6V52.8h2.305c.845,0,1.614.307,1.614,1.229,0,.692-.692,1.076-1.306,1.153h0a1.369,1.369,0,0,1,1.46,1.229,1.651,1.651,0,0,1-1.614,1.46H112.6v-.154Z" transform="translate(-26.082 -12.23)"/>
  <path id="Path_132" data-name="Path 132" class="cls-1" d="M119,57.741h.231c.307,0,.384-.077.384-.384V53.515c0-.384-.077-.384-.384-.384H119V52.9h1.921v.231h-.231c-.307,0-.384.077-.384.384v4.226h1.076a1.049,1.049,0,0,0,1.076-1.076h.231v1.306H119Z" transform="translate(-27.564 -12.253)"/>
  <path id="Path_133" data-name="Path 133" class="cls-1" d="M124.5,57.741h.307c.154,0,.307-.077.307-.461V53.592c0-.384,0-.461-.307-.461h-.231V52.9H128.5v1.153h-.231c0-.692-.384-1-1.076-1H125.96v2.228h1.076c.461,0,.692-.307.692-.768h.231v1.767h-.231c0-.461-.154-.768-.692-.768H125.96v2.228h1.306c.692,0,1.076-.307,1.076-1h.231v1.229h-4v-.231Z" transform="translate(-28.838 -12.253)"/>
  <path id="Path_134" data-name="Path 134" class="cls-1" d="M130.7,57.741h.23c.307,0,.384-.077.384-.384V53.515c0-.384-.077-.384-.384-.384h-.23V52.9h2v.231h-.231c-.307,0-.384.077-.384.384v3.842c0,.231.077.384.384.384h.231v.231h-2Z" transform="translate(-30.274 -12.253)"/>
  <path id="Path_135" data-name="Path 135" class="cls-1" d="M136.7,56.027l-.845-2.228-.922,2.228ZM136.32,52.8a2.3,2.3,0,0,0,.307.768l1.229,3.227c.307.845.461.922.692.922h.077v.231H136.7v-.231h.154c.307,0,.384-.077.384-.154a.581.581,0,0,0-.077-.307l-.384-.922h-2l-.231.615a3.394,3.394,0,0,0-.23.615c0,.231.23.231.461.231h.077v.231H133.4v-.231h.077c.23,0,.384-.077.538-.461l1.537-3.688.231-.692h.538Z" transform="translate(-30.9 -12.23)"/>
  <path id="Path_136" data-name="Path 136" class="cls-1" d="M143.277,57.741h.231c.307,0,.384-.077.384-.384V53.515c0-.384-.077-.384-.384-.384h-.231V52.9H145.2v.231h-.231c-.307,0-.384.077-.384.384v4.226h1.076a1.049,1.049,0,0,0,1.076-1.076h.231v1.306H143.2v-.231Z" transform="translate(-33.17 -12.253)"/>
  <path id="Path_137" data-name="Path 137" class="cls-1" d="M148.9,57.741h.307c.154,0,.307-.077.307-.461V53.592c0-.384,0-.461-.307-.461h-.231V52.9H152.9v1.153h-.231c0-.692-.384-1-1.076-1H150.36v2.228h1.076c.461,0,.692-.307.692-.768h.23v1.767h-.23c0-.461-.154-.768-.692-.768H150.36v2.228h1.306c.692,0,1.076-.307,1.076-1h.23v1.229h-4v-.231Z" transform="translate(-34.49 -12.253)"/>
  <path id="Path_138" data-name="Path 138" class="cls-1" d="M159,54.137h-.231a1.28,1.28,0,0,0-1.306-1.229c-1.306,0-1.537,1.46-1.537,2.459,0,1.076.231,2.382,1.383,2.382a.927.927,0,0,0,1-1v-.615c0-.307-.077-.384-.231-.384h-.307V55.52h1.767v.231h-.154c-.231,0-.307.077-.307.461v1.614h-.23c0-.077-.077-.154-.231-.154a5.732,5.732,0,0,1-1.306.231c-1.69,0-2.305-1.153-2.305-2.689a2.39,2.39,0,0,1,2.305-2.612c.384,0,.615.077.768.077a.975.975,0,0,0,.461.077c.077,0,.077-.077.154-.154h.23v1.537Z" transform="translate(-35.903 -12.184)"/>
  <path id="Path_139" data-name="Path 139" class="cls-1" d="M161.6,57.741h.231c.307,0,.384-.077.384-.384V53.515c0-.384-.077-.384-.384-.384H161.6V52.9h2v.231h-.231c-.307,0-.384.077-.384.384v3.842c0,.231.077.384.384.384h.231v.231h-2Z" transform="translate(-37.432 -12.253)"/>
  <path id="Path_140" data-name="Path 140" class="cls-1" d="M168.073,54.029h-.231a1.05,1.05,0,0,0-1.076-1.076.95.95,0,0,0-1.076,1c0,1.153,2.689.768,2.689,2.612a1.561,1.561,0,0,1-1.767,1.537c-.307,0-.538-.077-.768-.077a1.028,1.028,0,0,0-.384-.077c-.154,0-.154.077-.231.154H165V56.719h.231c.154.768.538,1.229,1.306,1.229a1.031,1.031,0,0,0,1.153-1.076c0-1.229-2.689-.922-2.689-2.536a1.535,1.535,0,0,1,1.69-1.537,10.024,10.024,0,0,1,1,.231.165.165,0,0,0,.154-.154h.231Z" transform="translate(-38.219 -12.23)"/>
  <path id="Path_141" data-name="Path 141" class="cls-1" d="M170.177,57.741h.231c.307,0,.384-.077.384-.384V53.515c0-.384-.077-.384-.384-.384h-.231V52.9H172.1v.231h-.231c-.307,0-.384.077-.384.384v4.226h1.076a1.049,1.049,0,0,0,1.076-1.076h.23v1.306H170.1v-.231Z" transform="translate(-39.401 -12.253)"/>
  <path id="Path_142" data-name="Path 142" class="cls-1" d="M178.5,56.027l-.845-2.228-.922,2.228ZM178.12,52.8a2.3,2.3,0,0,0,.307.768l1.229,3.227c.307.845.461.922.692.922h.077v.231H178.5v-.231h.154c.307,0,.384-.077.384-.154a.581.581,0,0,0-.077-.307l-.384-.922h-2l-.231.615a3.394,3.394,0,0,0-.23.615c0,.231.23.231.461.231h.077v.231H175.2v-.231h.077c.23,0,.384-.077.538-.461l1.537-3.688a2.442,2.442,0,0,0,.231-.692h.538Z" transform="translate(-40.582 -12.23)"/>
  <path id="Path_143" data-name="Path 143" class="cls-1" d="M182.676,57.718h.307c.307,0,.307-.154.307-.768V53.031h-.384a.99.99,0,0,0-1.076,1h-.23V52.8h4.3v1.229h-.231a.95.95,0,0,0-1.076-1h-.384v3.919c0,.615,0,.768.307.768h.307v.231h-2.151Z" transform="translate(-42.064 -12.23)"/>
  <path id="Path_144" data-name="Path 144" class="cls-1" d="M187.8,57.741h.231c.307,0,.384-.077.384-.384V53.515c0-.384-.077-.384-.384-.384H187.8V52.9h2v.231h-.231c-.307,0-.384.077-.384.384v3.842c0,.231.077.384.384.384h.231v.231h-2Z" transform="translate(-43.5 -12.253)"/>
  <path id="Path_145" data-name="Path 145" class="cls-1" d="M195.618,53.154h-.077c-.307,0-.384.154-.615.922l-1.383,3.611c-.077.154-.077.231-.154.384h-.384A6.022,6.022,0,0,0,192.621,57l-1.229-3.073c-.231-.615-.307-.692-.538-.692H190.7V53h2v.231h-.307a.2.2,0,0,0-.231.231,1.907,1.907,0,0,0,.231.768l1.153,3,1.153-3.15a1.955,1.955,0,0,0,.154-.538c0-.154-.077-.231-.307-.231h-.307v-.231h1.46v.077Z" transform="translate(-44.172 -12.276)"/>
  <path id="Path_146" data-name="Path 146" class="cls-1" d="M199.381,56.027l-.845-2.228-1,2.228ZM198.92,52.8a2.3,2.3,0,0,0,.307.768l1.229,3.227c.307.845.461.922.692.922h.077v.231H199.3v-.231h.154c.307,0,.384-.077.384-.154a.581.581,0,0,0-.077-.307l-.384-.922h-2l-.231.615a3.4,3.4,0,0,0-.231.615c0,.231.231.231.461.231h.077v.231H196v-.231h.077c.231,0,.384-.077.538-.461l1.537-3.688a2.442,2.442,0,0,0,.23-.692h.538Z" transform="translate(-45.4 -12.23)"/>
  <path id="Path_147" data-name="Path 147" class="cls-1" d="M82.183,69.441H82.8c1.383,0,1.69-1.153,1.69-2.305,0-1.229-.384-2.305-1.767-2.305h-.615v4.61ZM80.8,64.6h2a2.385,2.385,0,0,1,2.612,2.612,2.349,2.349,0,0,1-2.536,2.459H80.8v-.231h.307c.231,0,.307-.077.307-.768V65.445c0-.461,0-.692-.231-.692h-.307V64.6Z" transform="translate(-18.716 -14.963)"/>
  <path id="Path_148" data-name="Path 148" class="cls-1" d="M89.851,69.471c1.153,0,1.229-1.614,1.229-2.459S91,64.554,89.851,64.554s-1.229,1.614-1.229,2.459c0,.922.077,2.459,1.229,2.459m0-5.071c1.46,0,2.151,1.306,2.151,2.612s-.692,2.612-2.151,2.612S87.7,68.319,87.7,67.012s.692-2.612,2.151-2.612" transform="translate(-20.314 -14.917)"/>
  <path id="Path_149" data-name="Path 149" class="cls-1" d="M98.283,66.905h.538A.971.971,0,0,0,99.9,65.829c0-.768-.384-1.076-1.153-1.076h-.538v2.151ZM96.9,69.441h.231c.307,0,.384-.077.384-.384V65.215c0-.384-.077-.384-.384-.384H96.9V64.6h2.305c.845,0,1.614.307,1.614,1.153a1.389,1.389,0,0,1-1.229,1.229h0c.845.154,1,.384,1.076,1.306v.845c0,.077,0,.231.154.231a.352.352,0,0,0,.307-.384l.231.077a.809.809,0,0,1-.768.615c-.615,0-.768-.461-.768-1l-.077-.922c0-.538-.307-.768-1-.768h-.461V68.9c0,.307,0,.461.384.461H98.9v.231H96.977v-.154Z" transform="translate(-22.445 -14.963)"/>
  <path id="Path_150" data-name="Path 150" class="cls-1" d="M103.3,69.441h.231c.307,0,.384-.077.384-.384V65.215c0-.384-.077-.384-.384-.384H103.3V64.6h2v.231h-.231c-.307,0-.384.077-.384.384v3.842c0,.231.077.384.384.384h.231v.231h-2Z" transform="translate(-23.928 -14.963)"/>
  <path id="Path_151" data-name="Path 151" class="cls-1" d="M108.851,69.471c1.153,0,1.229-1.614,1.229-2.459s-.077-2.459-1.229-2.459-1.229,1.614-1.229,2.459c-.077.922,0,2.459,1.229,2.459m0-5.071c1.46,0,2.151,1.306,2.151,2.612s-.692,2.612-2.151,2.612-2.151-1.306-2.151-2.612.692-2.612,2.151-2.612" transform="translate(-24.715 -14.917)"/>
  <path id="Path_152" data-name="Path 152" class="cls-1" d="M117.183,69.441h.615c1.383,0,1.69-1.153,1.69-2.305,0-1.229-.384-2.305-1.767-2.305h-.615v4.61ZM115.8,64.6h2a2.385,2.385,0,0,1,2.612,2.612,2.349,2.349,0,0,1-2.536,2.459H115.8v-.231h.307c.231,0,.307-.077.307-.768V65.445c0-.461,0-.692-.231-.692h-.307V64.6Z" transform="translate(-26.823 -14.963)"/>
  <path id="Path_153" data-name="Path 153" class="cls-1" d="M122.7,69.441h.307c.154,0,.307-.077.307-.461V65.292c0-.384,0-.461-.307-.461h-.231V64.6H126.7v1.153h-.231c0-.692-.384-1-1.076-1H124.16v2.151h1.076c.461,0,.692-.307.692-.768h.231v1.844h-.231c0-.461-.154-.768-.692-.768H124.16v2.228h1.306c.692,0,1.076-.307,1.076-1h.231v1.229h-4v-.231Z" transform="translate(-28.421 -14.963)"/>
  <path id="Path_154" data-name="Path 154" class="cls-1" d="M132.653,64.6h2v.231h-.307c-.231,0-.307.077-.307.845v2.766a1.375,1.375,0,0,1-1.537,1.383,3.411,3.411,0,0,1-1-.154V68.442h.231c0,.538.154,1.153.845,1.153.615,0,.692-.538.692-1.229V65.6c0-.692,0-.845-.307-.845h-.307Z" transform="translate(-30.46 -14.963)"/>
  <path id="Path_155" data-name="Path 155" class="cls-1" d="M138.8,67.727l-.845-2.228-.922,2.228ZM138.42,64.5a2.3,2.3,0,0,0,.307.768l1.229,3.227c.307.845.461.922.692.922h.077v.231H138.8v-.231h.154c.307,0,.384-.077.384-.154a.581.581,0,0,0-.077-.307l-.384-.922h-2l-.23.615a3.393,3.393,0,0,0-.231.615c0,.231.231.231.461.231h.077v.231H135.5v-.231h.077c.231,0,.384-.077.538-.461l1.537-3.688.231-.692h.538Z" transform="translate(-31.386 -14.94)"/>
  <path id="Path_156" data-name="Path 156" class="cls-1" d="M142.6,69.418h.231c.307,0,.307-.307.307-.845V65.729c0-.922-.077-1-.307-1H142.6V64.5h1.383l2.536,3.919h0V65.5c0-.615,0-.768-.384-.768H145.9V64.5h1.537v.231h-.154c-.384,0-.384.154-.384.768v4.149h-.461l-2.92-4.457h0v3.381c0,.538,0,.845.307.845h.307v.231h-1.46v-.23Z" transform="translate(-33.031 -14.94)"/>
  <path id="Path_157" data-name="Path 157" class="cls-1" d="M149.6,69.441h.307c.154,0,.307-.077.307-.461V65.292c0-.384,0-.461-.307-.461h-.231V64.6H153.6v1.153h-.231c0-.692-.384-1-1.076-1H151.06v2.151h1.076c.461,0,.692-.307.692-.768h.23v1.844h-.23c0-.461-.154-.768-.692-.768H151.06v2.228h1.306c.692,0,1.076-.307,1.076-1h.23v1.229h-4v-.231Z" transform="translate(-34.652 -14.963)"/>
  <path id="Path_158" data-name="Path 158" class="cls-1" d="M155.7,69.441h.231c.307,0,.384-.077.384-.384V65.215c0-.384-.077-.384-.384-.384H155.7V64.6h2v.231h-.231c-.307,0-.384.077-.384.384v3.842c0,.231.077.384.384.384h.231v.231h-2Z" transform="translate(-36.065 -14.963)"/>
  <path id="Path_159" data-name="Path 159" class="cls-1" d="M160.383,66.905h.538A.971.971,0,0,0,162,65.829c0-.768-.384-1.076-1.153-1.076h-.538v2.151ZM159,69.441h.231c.307,0,.384-.077.384-.384V65.215c0-.384-.077-.384-.384-.384H159V64.6h2.305c.845,0,1.614.307,1.614,1.153a1.389,1.389,0,0,1-1.229,1.229h0c.845.154,1,.384,1.076,1.306v.845c0,.077,0,.231.154.231a.352.352,0,0,0,.307-.384l.23.077a.809.809,0,0,1-.768.615c-.615,0-.768-.461-.768-1l-.077-.922c0-.538-.307-.768-1-.768h-.461V68.9c0,.307,0,.461.384.461H161v.231h-2Z" transform="translate(-36.829 -14.963)"/>
  <path id="Path_160" data-name="Path 160" class="cls-1" d="M167.651,69.471c1.153,0,1.229-1.614,1.229-2.459s-.077-2.459-1.229-2.459-1.229,1.614-1.229,2.459c-.077.922.077,2.459,1.229,2.459m0-5.071c1.46,0,2.151,1.306,2.151,2.612s-.692,2.612-2.151,2.612-2.151-1.306-2.151-2.612.692-2.612,2.151-2.612" transform="translate(-38.335 -14.917)"/>
  <path id="Path_161" data-name="Path 161" class="cls-1" d="M100.966,24.342,98.2,17.35l-2.92,6.992Zm-5.916.615-1.306,3.381a1.5,1.5,0,0,0-.077.538c0,.538.768.615,1.46.615h.231v.615H90.9v-.615c1.229,0,1.69-.692,2.151-1.767L98.507,14.2h.768l5.532,13.831c.307.845.692,1.383,1.537,1.383h.307v.615h-5.609v-.615h.231c.538,0,1.46,0,1.46-.538a2.064,2.064,0,0,0-.307-1l-1.153-2.92Z" transform="translate(-21.055 -3.289)"/>
  <path id="Path_162" data-name="Path 162" class="cls-1" d="M121.963,14.5v.615h-.692c-1.306,0-1.306.538-1.306,1.537V29.56h3.227c2.382,0,3.611-1.153,3.611-3.3h.768v3.919H116.2V29.56h.845c.768,0,1-.384,1-1.614V17.5c0-2.151,0-2.382-1.306-2.382H116.2V14.5Z" transform="translate(-26.916 -3.359)"/>
  <path id="Path_163" data-name="Path 163" class="cls-1" d="M136.6,29.56h.845c.768,0,1-.384,1-1.614V17.5c0-2.151,0-2.382-1.306-2.382H136.6V14.5h11.91v3.611h-.768c0-2.151-1.153-3-3.227-3h-4.072v6.838h2.766c1.844,0,2.843-.384,2.843-2.459h.768V24.95h-.768a2.091,2.091,0,0,0-2.382-2.382h-3.227V29.56h3.842c2.228,0,3.611-.461,3.688-3h.768v3.688H136.6V29.56Z" transform="translate(-31.641 -3.359)"/>
  <path id="Path_164" data-name="Path 164" class="cls-1" d="M163.3,21.646h2.151a3.227,3.227,0,0,0,3.381-3.381c0-2.228-1.306-3.073-3.458-3.073h-2.151Zm-3.842,7.914h.845c.768,0,1-.384,1-1.614V17.5c0-2.151,0-2.382-1.306-2.382h-.538V14.5h5.763c2.536,0,5.916.461,5.916,3.688,0,2.151-2.075,3.3-4,3.688v.077c1.537.231,3.073,1.076,3.073,2.843V27.87c0,.461,0,1.537.692,1.537s.845-.615,1.076-1.076l.692.231a2.8,2.8,0,0,1-2.459,2c-1.69,0-2.075-1-2.075-2.689V25.565c0-2.459-.692-3.3-3.15-3.3h-1.844v5.379c0,1.614.077,1.921,1.153,1.921h.692v.615H159.3V29.56Z" transform="translate(-36.899 -3.359)"/>
  <path id="Path_165" data-name="Path 165" class="cls-1" d="M180.577,26.256h.768c.077,2.075.615,3.611,2.459,3.611,2,0,2.228-1.844,2.228-3.458v-9.6c0-1.229,0-1.69-1.153-1.69h-.845V14.5h5.916v.615h-.845c-1.076,0-1.076.461-1.076,1.69v8.068c0,3.073-.615,5.609-4.3,5.609a8.025,8.025,0,0,1-3.227-.615Z" transform="translate(-41.809 -3.359)"/>
  <path id="Path_166" data-name="Path 166" class="cls-1" d="M202.606,25.812a1.306,1.306,0,1,1,1.306-1.306,1.249,1.249,0,0,1-1.306,1.306Z" transform="translate(-46.627 -5.374)"/>
  <path id="Path_167" data-name="Path 167" class="cls-1" d="M80.106,25.812A1.3,1.3,0,0,1,78.8,24.506,1.346,1.346,0,0,1,80.106,23.2a1.3,1.3,0,0,1,1.306,1.306,1.249,1.249,0,0,1-1.306,1.306" transform="translate(-18.253 -5.374)"/>
  <rect id="Rectangle_26" data-name="Rectangle 26" class="cls-1" width="1.383" height="3.611" transform="translate(52.941 45.872)"/>
  <rect id="Rectangle_27" data-name="Rectangle 27" class="cls-1" width="1.383" height="3.534" transform="translate(2.151 45.872)"/>
  <rect id="Rectangle_28" data-name="Rectangle 28" class="cls-1" width="2.536" height="2.689" transform="translate(30.274 6.07)"/>
  <rect id="Rectangle_29" data-name="Rectangle 29" class="cls-1" width="56.398" height="1.306" transform="translate(0 53.402)"/>
  <rect id="Rectangle_30" data-name="Rectangle 30" class="cls-1" width="1.921" height="3.534" transform="translate(49.176 45.872)"/>
  <rect id="Rectangle_31" data-name="Rectangle 31" class="cls-1" width="2.382" height="3.534" transform="translate(44.95 45.872)"/>
  <rect id="Rectangle_32" data-name="Rectangle 32" class="cls-1" width="2.382" height="3.534" transform="translate(40.724 45.872)"/>
  <rect id="Rectangle_33" data-name="Rectangle 33" class="cls-1" width="2.612" height="3.534" transform="translate(36.267 45.872)"/>
  <rect id="Rectangle_34" data-name="Rectangle 34" class="cls-1" width="2.843" height="3.534" transform="translate(31.657 45.872)"/>
  <rect id="Rectangle_35" data-name="Rectangle 35" class="cls-1" width="3.15" height="3.534" transform="translate(26.662 45.872)"/>
  <rect id="Rectangle_36" data-name="Rectangle 36" class="cls-1" width="2.843" height="3.534" transform="translate(21.975 45.872)"/>
  <rect id="Rectangle_37" data-name="Rectangle 37" class="cls-1" width="2.612" height="3.534" transform="translate(17.596 45.872)"/>
  <rect id="Rectangle_38" data-name="Rectangle 38" class="cls-1" width="2.382" height="3.534" transform="translate(13.37 45.872)"/>
  <rect id="Rectangle_39" data-name="Rectangle 39" class="cls-1" width="2.382" height="3.534" transform="translate(9.144 45.872)"/>
  <rect id="Rectangle_40" data-name="Rectangle 40" class="cls-1" width="1.921" height="3.534" transform="translate(5.379 45.872)"/>
  <path id="Path_168" data-name="Path 168" class="cls-1" d="M41.2,51.453H28.6V50.3H41.2Zm0,2.151H28.6V52.451H41.2Z" transform="translate(-6.625 -11.651)"/>
  <path id="Path_169" data-name="Path 169" class="cls-1" d="M56.7,51.453H48.4V50.3h8.3Zm0,2.228H48.4V52.528h8.3Z" transform="translate(-11.211 -11.651)"/>
  <path id="Path_170" data-name="Path 170" class="cls-1" d="M67.341,51.453H62.5V50.3h4.841Zm0,2.228H62.5V52.528h4.841Z" transform="translate(-14.477 -11.651)"/>
  <path id="Path_171" data-name="Path 171" class="cls-1" d="M9.441,51.453H4.6V50.3H9.441Zm0,2.228H4.6V52.528H9.441Z" transform="translate(-1.066 -11.651)"/>
  <path id="Path_172" data-name="Path 172" class="cls-1" d="M36.975,17.1c2.766,8.3,4.149,15.367,4.149,22.206v2.228H28.6V39.383a68.649,68.649,0,0,1,4-22.206h4.38Z" transform="translate(-6.625 -3.961)"/>
  <path id="Path_173" data-name="Path 173" class="cls-1" d="M45.265,17.077A39.408,39.408,0,0,1,54.946,41.2v.154H46.725V39.974A50.81,50.81,0,0,0,41.5,17h3.765Z" transform="translate(-9.613 -3.938)"/>
  <path id="Path_174" data-name="Path 174" class="cls-1" d="M50.7,17.1A33.826,33.826,0,0,1,63.836,41.3v.154H59V41.3A35.567,35.567,0,0,0,47.7,17.1Z" transform="translate(-11.049 -3.961)"/>
  <rect id="Rectangle_41" data-name="Rectangle 41" class="cls-1" width="56.398" height="1.306" transform="translate(0 50.943)"/>
  <rect id="Rectangle_42" data-name="Rectangle 42" class="cls-1" width="56.398" height="1.306" transform="translate(0 43.105)"/>
  <rect id="Rectangle_43" data-name="Rectangle 43" class="cls-1" width="2.382" height="2.689" transform="translate(20.362 6.07)"/>
  <rect id="Rectangle_44" data-name="Rectangle 44" class="cls-1" width="2.382" height="2.689" transform="translate(23.589 6.07)"/>
  <rect id="Rectangle_45" data-name="Rectangle 45" class="cls-1" width="2.228" height="2.689" transform="translate(33.731 6.07)"/>
  <rect id="Rectangle_46" data-name="Rectangle 46" class="cls-1" width="2.459" height="2.689" transform="translate(26.893 6.07)"/>
  <path id="Path_175" data-name="Path 175" class="cls-1" d="M33.2,5.071h5.3V2.459A2.666,2.666,0,0,0,35.889,0,2.722,2.722,0,0,0,33.2,2.689Z" transform="translate(-7.69)"/>
  <path id="Path_176" data-name="Path 176" class="cls-1" d="M42.8,4.537A1.494,1.494,0,0,1,44.337,3a1.541,1.541,0,0,1,1.537,1.537V5.689H42.8Z" transform="translate(-9.914 -0.695)"/>
  <path id="Path_177" data-name="Path 177" class="cls-1" d="M26.5,4.537A1.494,1.494,0,0,1,28.037,3a1.541,1.541,0,0,1,1.537,1.537V5.689H26.5Z" transform="translate(-6.138 -0.695)"/>
  <path id="Path_178" data-name="Path 178" class="cls-1" d="M37.75,13.468,37.52,12.7H34.831a4.775,4.775,0,0,0-.231.768Z" transform="translate(-8.014 -2.942)"/>
  <path id="Path_179" data-name="Path 179" class="cls-1" d="M38.1,15.568c-.077-.231-.154-.538-.231-.768H34.331c-.077.231-.154.538-.231.768Z" transform="translate(-7.899 -3.428)"/>
  <path id="Path_180" data-name="Path 180" class="cls-1" d="M42.873,13.468a8.086,8.086,0,0,1-.692-.768H39.8l.384.768Z" transform="translate(-9.219 -2.942)"/>
  <path id="Path_181" data-name="Path 181" class="cls-1" d="M44.465,15.568c-.231-.231-.461-.538-.692-.768H40.7l.384.768Z" transform="translate(-9.427 -3.428)"/>
  <path id="Path_182" data-name="Path 182" class="cls-1" d="M47.35,13.468c-.538-.461-.922-.768-.922-.768H44.2a7.244,7.244,0,0,0,.768.768Z" transform="translate(-10.238 -2.942)"/>
  <path id="Path_183" data-name="Path 183" class="cls-1" d="M46.668,15.568A7.244,7.244,0,0,0,45.9,14.8h2.612a9.758,9.758,0,0,0,.922.768Z" transform="translate(-10.632 -3.428)"/>
  <path id="Path_184" data-name="Path 184" class="cls-1" d="M20.736,17.1a35.24,35.24,0,0,0-11.3,24.2v.154H4.6V41.3A34.482,34.482,0,0,1,17.816,17.1Z" transform="translate(-1.066 -3.961)"/>
  <path id="Path_185" data-name="Path 185" class="cls-1" d="M22.7,51.453H14.4V50.3h8.3Zm0,2.228H14.4V52.528h8.3Z" transform="translate(-3.335 -11.651)"/>
  <path id="Path_186" data-name="Path 186" class="cls-1" d="M27.77,17.1a50.81,50.81,0,0,0-5.225,22.974v1.383H14.4V41.3a39.225,39.225,0,0,1,9.681-24.127H27.77Z" transform="translate(-3.335 -3.961)"/>
  <path id="Path_187" data-name="Path 187" class="cls-1" d="M31.281,15.568l.384-.768H28.592c-.231.231-.461.538-.692.768Z" transform="translate(-6.463 -3.428)"/>
  <path id="Path_188" data-name="Path 188" class="cls-1" d="M32.366,13.468l.384-.768H30.292a8.085,8.085,0,0,1-.692.768Z" transform="translate(-6.856 -2.942)"/>
  <path id="Path_189" data-name="Path 189" class="cls-1" d="M25.666,15.568l.768-.768H23.822a8.138,8.138,0,0,0-.922.768Z" transform="translate(-5.304 -3.428)"/>
  <path id="Path_190" data-name="Path 190" class="cls-1" d="M27.582,13.468l.768-.768H26.122a9.408,9.408,0,0,1-.922.768Z" transform="translate(-5.837 -2.942)"/>
  <rect id="Rectangle_47" data-name="Rectangle 47" class="cls-1" width="94.125" height="0.999" transform="translate(61.854 32.886)"/>
</svg>
